<svg xmlns="http://www.w3.org/2000/svg" width="1280" height="720" viewBox="0 0 1280 720"><rect width="100%" height="100%" fill="#DDDDDD"/><path fill="#999999" d="M278.945 361.085h13.57q4.99 0 8.7-1.25 3.72-1.25 6.18-3.58 2.46-2.33 3.68-5.67 1.21-3.34 1.21-7.46 0-3.91-1.21-7.09-1.22-3.17-3.65-5.4-2.43-2.22-6.14-3.4-3.71-1.19-8.77-1.19h-13.57v35.04Zm-18.16-49.08h31.73q9.78 0 16.94 2.3 7.15 2.29 11.81 6.41t6.92 9.86q2.26 5.73 2.26 12.55 0 7.09-2.36 13-2.36 5.9-7.09 10.15-4.72 4.26-11.84 6.62-7.13 2.36-16.64 2.36h-13.57v34.36h-18.16v-97.61Zm81.14-2.7h16.67v100.31h-16.67v-100.31Zm69.93 82.42v-11.68q-7.23.34-12.15 1.25-4.93.91-7.9 2.33-2.97 1.42-4.25 3.31-1.29 1.89-1.29 4.12 0 4.38 2.6 6.27 2.6 1.89 6.79 1.89 5.13 0 8.87-1.85 3.75-1.86 7.33-5.64Zm-35.24-36.38-2.97-5.33q11.95-10.94 28.76-10.94 6.07 0 10.86 1.99 4.8 1.99 8.1 5.54 3.31 3.54 5.03 8.47 1.72 4.93 1.72 10.8v43.74h-7.56q-2.36 0-3.64-.71-1.28-.71-2.03-2.87l-1.48-4.99q-2.63 2.36-5.13 4.15-2.5 1.79-5.2 3-2.7 1.22-5.77 1.86-3.07.64-6.78.64-4.39 0-8.1-1.18-3.72-1.18-6.42-3.55-2.7-2.36-4.18-5.87-1.49-3.51-1.49-8.17 0-2.63.88-5.23.88-2.6 2.87-4.96 1.99-2.36 5.16-4.45 3.18-2.1 7.8-3.65 4.62-1.55 10.77-2.53 6.14-.98 14.04-1.18v-4.05q0-6.95-2.97-10.29-2.97-3.35-8.58-3.35-4.05 0-6.71.95-2.67.94-4.69 2.13-2.03 1.18-3.68 2.12-1.66.95-3.68.95-1.76 0-2.97-.91-1.22-.92-1.96-2.13Zm121.16-6.41-4.38 6.07q-.75.95-1.45 1.49-.71.54-2.06.54-1.29 0-2.5-.78-1.22-.78-2.9-1.75-1.69-.98-4.02-1.76-2.33-.78-5.77-.78-4.39 0-7.7 1.59-3.3 1.59-5.5 4.56-2.19 2.97-3.27 7.19-1.08 4.21-1.08 9.55 0 5.53 1.18 9.85 1.18 4.32 3.41 7.26 2.23 2.93 5.4 4.45 3.17 1.52 7.15 1.52 3.99 0 6.45-.98t4.15-2.16q1.69-1.18 2.94-2.16 1.25-.98 2.8-.98 2.02 0 3.04 1.56l4.79 6.07q-2.77 3.24-6.01 5.44-3.24 2.19-6.71 3.51-3.48 1.31-7.16 1.85t-7.32.54q-6.42 0-12.09-2.39-5.67-2.4-9.92-6.99t-6.71-11.24q-2.47-6.65-2.47-15.15 0-7.63 2.2-14.14 2.19-6.52 6.44-11.28t10.53-7.46q6.28-2.7 14.45-2.7 7.76 0 13.6 2.5t10.49 7.16Zm24.24 18.09h31.45q0-3.24-.91-6.11t-2.73-5.03q-1.83-2.16-4.63-3.41t-6.51-1.25q-7.22 0-11.37 4.12-4.16 4.12-5.3 11.68Zm42.52 10.05h-42.86q.4 5.34 1.89 9.22 1.48 3.88 3.91 6.41 2.43 2.53 5.78 3.78 3.34 1.25 7.39 1.25t6.98-.95q2.94-.94 5.13-2.09 2.2-1.15 3.85-2.09 1.65-.95 3.21-.95 2.09 0 3.1 1.56l4.79 6.07q-2.76 3.24-6.21 5.44-3.44 2.19-7.18 3.51-3.75 1.31-7.63 1.85t-7.53.54q-7.22 0-13.43-2.39-6.21-2.4-10.8-7.09-4.59-4.69-7.22-11.61-2.64-6.92-2.64-16.03 0-7.09 2.3-13.33 2.29-6.25 6.58-10.87 4.29-4.63 10.46-7.33 6.18-2.7 13.94-2.7 6.55 0 12.08 2.1 5.54 2.09 9.52 6.11 3.98 4.01 6.25 9.85 2.26 5.84 2.26 13.33 0 3.78-.81 5.1-.81 1.31-3.11 1.31Zm115.9-65.07h18.22v97.61h-18.22v-42.66h-45.83v42.66h-18.23v-97.61h18.23v41.99h45.83v-41.99Zm67.97 27.27q7.7 0 14.01 2.5t10.8 7.09q4.49 4.59 6.92 11.2 2.43 6.62 2.43 14.79 0 8.23-2.43 14.85-2.43 6.61-6.92 11.27-4.49 4.66-10.8 7.15-6.31 2.5-14.01 2.5-7.76 0-14.11-2.5-6.34-2.49-10.83-7.15t-6.95-11.27q-2.47-6.62-2.47-14.85 0-8.17 2.47-14.79 2.46-6.61 6.95-11.2 4.49-4.59 10.83-7.09 6.35-2.5 14.11-2.5Zm0 58.53q8.64 0 12.79-5.81 4.15-5.8 4.15-17.01 0-11.2-4.15-17.08-4.15-5.87-12.79-5.87-8.77 0-12.99 5.91-4.22 5.9-4.22 17.04 0 11.14 4.22 16.98t12.99 5.84Zm47.12-88.5h16.67v100.31h-16.67v-100.31Zm76.81 79.79v-31.05q-2.83-3.44-6.17-4.86-3.35-1.42-7.19-1.42-3.78 0-6.82 1.42-3.04 1.42-5.2 4.29-2.16 2.86-3.31 7.29-1.14 4.42-1.14 10.42 0 6.08.98 10.3.97 4.22 2.8 6.88 1.82 2.67 4.45 3.85 2.63 1.18 5.87 1.18 5.2 0 8.85-2.16 3.64-2.16 6.88-6.14Zm0-79.79h16.67v100.31h-10.19q-3.31 0-4.18-3.04l-1.42-6.68q-4.19 4.79-9.62 7.76-5.43 2.97-12.66 2.97-5.67 0-10.39-2.36-4.73-2.36-8.13-6.85-3.41-4.49-5.27-11.1-1.86-6.62-1.86-15.13 0-7.69 2.1-14.31 2.09-6.61 6-11.47 3.92-4.86 9.39-7.59 5.47-2.74 12.28-2.74 5.81 0 9.92 1.82 4.12 1.83 7.36 4.93v-36.52Zm46.31 57.72h31.45q0-3.24-.91-6.11t-2.73-5.03q-1.83-2.16-4.63-3.41t-6.51-1.25q-7.22 0-11.37 4.12-4.15 4.12-5.3 11.68Zm42.52 10.05h-42.86q.4 5.34 1.89 9.22 1.49 3.88 3.92 6.41 2.43 2.53 5.77 3.78 3.34 1.25 7.39 1.25t6.98-.95q2.94-.94 5.13-2.09 2.2-1.15 3.85-2.09 1.65-.95 3.21-.95 2.09 0 3.1 1.56l4.79 6.07q-2.76 3.24-6.21 5.44-3.44 2.19-7.18 3.51-3.75 1.31-7.63 1.85t-7.53.54q-7.22 0-13.43-2.39-6.21-2.4-10.8-7.09-4.59-4.69-7.22-11.61-2.64-6.92-2.64-16.03 0-7.09 2.3-13.33 2.3-6.25 6.58-10.87 4.29-4.63 10.46-7.33 6.18-2.7 13.94-2.7 6.55 0 12.08 2.1 5.54 2.09 9.52 6.11 3.98 4.01 6.25 9.85 2.26 5.84 2.26 13.33 0 3.78-.81 5.1-.81 1.31-3.11 1.31Zm31.12-32.53 1.01 7.83q3.24-6.21 7.7-9.75 4.45-3.55 10.53-3.55 4.79 0 7.69 2.09l-1.08 12.49q-.33 1.22-.98 1.72-.64.51-1.72.51-1.01 0-3-.34t-3.88-.34q-2.77 0-4.93.81-2.16.81-3.88 2.33-1.72 1.52-3.04 3.68t-2.46 4.93v42.66h-16.68v-69.26h9.79q2.57 0 3.58.92 1.01.91 1.35 3.27Z"/></svg>